{
	"asset":{
		"generator":"Khronos glTF Blender I/O v4.5.47",
		"version":"2.0"
	},
	"extensionsUsed":[
		"KHR_materials_specular"
	],
	"scene":0,
	"scenes":[
		{
			"name":"Scene",
			"nodes":[
				65
			]
		}
	],
	"nodes":[
		{
			"mesh":0,
			"name":"Object_7"
		},
		{
			"children":[
				0
			],
			"name":"Cylinder.001_2",
			"rotation":[
				0.5,
				0.5,
				0.5000000596046448,
				0.4999999403953552
			],
			"scale":[
				3.5030441284179688,
				3.5030441284179688,
				3.503044605255127
			],
			"translation":[
				-0.025447625666856766,
				-0.5620430707931519,
				-0.3451431393623352
			]
		},
		{
			"mesh":1,
			"name":"Object_9"
		},
		{
			"children":[
				2
			],
			"name":"Cylinder.002_3",
			"rotation":[
				0.5,
				0.5,
				0.5000000596046448,
				0.4999999403953552
			],
			"scale":[
				3.5030441284179688,
				3.5030441284179688,
				3.503044605255127
			],
			"translation":[
				-0.025447625666856766,
				-0.5620430707931519,
				-0.3451431393623352
			]
		},
		{
			"mesh":2,
			"name":"Object_5"
		},
		{
			"children":[
				4
			],
			"name":"Cylinder_1",
			"rotation":[
				0.5,
				0.5,
				0.5000000596046448,
				0.4999999403953552
			],
			"scale":[
				3.5030441284179688,
				3.5030441284179688,
				3.503044605255127
			],
			"translation":[
				2.420140027999878,
				0.4772544503211975,
				6.5965070724487305
			]
		},
		{
			"mesh":3,
			"name":"Object_11"
		},
		{
			"children":[
				6
			],
			"name":"defaultMaterial.001_4",
			"scale":[
				0.1000000536441803,
				0.10000007599592209,
				0.10000007599592209
			],
			"translation":[
				0,
				-0.17029410600662231,
				0
			]
		},
		{
			"mesh":4,
			"name":"Object_13"
		},
		{
			"children":[
				8
			],
			"name":"defaultMaterial.002_5",
			"scale":[
				0.1000000536441803,
				0.10000007599592209,
				0.10000007599592209
			],
			"translation":[
				-0.017583634704351425,
				0.217472642660141,
				-0.047129638493061066
			]
		},
		{
			"mesh":5,
			"name":"Object_15",
			"translation":[
				0,
				0,
				-3.2671487133484334e-06
			]
		},
		{
			"children":[
				10
			],
			"name":"defaultMaterial.003_6",
			"scale":[
				0.10543229430913925,
				0.10543232411146164,
				0.10543232411146164
			],
			"translation":[
				2.418741226196289,
				0.42966428399086,
				6.59578275680542
			]
		},
		{
			"mesh":6,
			"name":"Object_17"
		},
		{
			"children":[
				12
			],
			"name":"defaultMaterial.004_7",
			"scale":[
				0.1000000536441803,
				0.10000007599592209,
				0.10000007599592209
			],
			"translation":[
				0,
				-0.17029410600662231,
				0
			]
		},
		{
			"mesh":7,
			"name":"Object_19"
		},
		{
			"children":[
				14
			],
			"name":"defaultMaterial.005_8",
			"scale":[
				0.1000000536441803,
				0.10000007599592209,
				0.10000007599592209
			],
			"translation":[
				0,
				-0.17029410600662231,
				0
			]
		},
		{
			"mesh":8,
			"name":"Object_21"
		},
		{
			"children":[
				16
			],
			"name":"defaultMaterial.006_9",
			"scale":[
				0.1000000536441803,
				0.10000007599592209,
				0.10000007599592209
			],
			"translation":[
				0,
				-0.17029410600662231,
				0
			]
		},
		{
			"mesh":9,
			"name":"Object_23"
		},
		{
			"children":[
				18
			],
			"name":"defaultMaterial.007_10",
			"scale":[
				0.1000000536441803,
				0.10000007599592209,
				0.10000007599592209
			],
			"translation":[
				0,
				-0.17029410600662231,
				0
			]
		},
		{
			"mesh":10,
			"name":"Object_25"
		},
		{
			"children":[
				20
			],
			"name":"defaultMaterial.008_11",
			"scale":[
				0.1000000536441803,
				0.10000007599592209,
				0.10000007599592209
			],
			"translation":[
				0,
				-0.17029410600662231,
				0
			]
		},
		{
			"mesh":11,
			"name":"Object_27"
		},
		{
			"children":[
				22
			],
			"name":"defaultMaterial.009_12",
			"scale":[
				0.1000000536441803,
				0.10000007599592209,
				0.10000007599592209
			],
			"translation":[
				0,
				-0.17029410600662231,
				0
			]
		},
		{
			"mesh":12,
			"name":"Object_29",
			"translation":[
				0,
				0,
				-3.3821397664723918e-06
			]
		},
		{
			"children":[
				24
			],
			"name":"defaultMaterial.010_13",
			"scale":[
				0.11327291280031204,
				0.11327296495437622,
				0.11327296495437622
			],
			"translation":[
				-2.466332197189331,
				0.3646722435951233,
				6.81147575378418
			]
		},
		{
			"mesh":13,
			"name":"Object_31"
		},
		{
			"children":[
				26
			],
			"name":"defaultMaterial.011_14",
			"scale":[
				0.11327291280031204,
				0.11327296495437622,
				0.11327296495437622
			],
			"translation":[
				-2.466334581375122,
				0.3166149854660034,
				6.811464309692383
			]
		},
		{
			"mesh":14,
			"name":"Object_33"
		},
		{
			"children":[
				28
			],
			"name":"defaultMaterial.012_15",
			"scale":[
				0.1000000536441803,
				0.10000007599592209,
				0.10000007599592209
			],
			"translation":[
				0,
				-0.17029410600662231,
				0
			]
		},
		{
			"mesh":15,
			"name":"Object_35"
		},
		{
			"children":[
				30
			],
			"name":"defaultMaterial.013_16",
			"scale":[
				0.1000000536441803,
				0.10000007599592209,
				0.10000007599592209
			],
			"translation":[
				0,
				-0.17029410600662231,
				0
			]
		},
		{
			"mesh":16,
			"name":"Object_37",
			"translation":[
				0,
				0,
				-3.1048357413965277e-06
			]
		},
		{
			"children":[
				32
			],
			"name":"defaultMaterial.014_17",
			"scale":[
				0.10543229430913925,
				0.10543232411146164,
				0.10543232411146164
			],
			"translation":[
				2.4187428951263428,
				0.5570324659347534,
				6.595775604248047
			]
		},
		{
			"mesh":17,
			"name":"Object_39",
			"translation":[
				0,
				0,
				7.894646842032671e-06
			]
		},
		{
			"children":[
				34
			],
			"name":"defaultMaterial.015_18",
			"scale":[
				0.1546970009803772,
				0.10543232411146164,
				0.15469704568386078
			],
			"translation":[
				2.4187440872192383,
				0.30540379881858826,
				6.595776557922363
			]
		},
		{
			"mesh":18,
			"name":"Object_41",
			"translation":[
				0,
				0,
				4.09040876547806e-06
			]
		},
		{
			"children":[
				36
			],
			"name":"defaultMaterial.016_19",
			"scale":[
				0.1546970009803772,
				0.10543232411146164,
				0.15469704568386078
			],
			"translation":[
				2.4187395572662354,
				0.3174457252025604,
				6.595765113830566
			]
		},
		{
			"mesh":19,
			"name":"Object_43",
			"translation":[
				0,
				0,
				4.528250428847969e-06
			]
		},
		{
			"children":[
				38
			],
			"name":"defaultMaterial.017_20",
			"scale":[
				0.10470516234636307,
				0.10470519214868546,
				0.10470519214868546
			],
			"translation":[
				2.4214842319488525,
				0.556067943572998,
				4.5000433921813965
			]
		},
		{
			"mesh":20,
			"name":"Object_45",
			"translation":[
				0,
				0,
				-3.4766196677082917e-06
			]
		},
		{
			"children":[
				40
			],
			"name":"defaultMaterial.018_21",
			"scale":[
				0.14018867909908295,
				0.05222102254629135,
				0.14018869400024414
			],
			"translation":[
				2.4214773178100586,
				0.35274621844291687,
				4.500040054321289
			]
		},
		{
			"mesh":21,
			"name":"Object_47",
			"translation":[
				0,
				0,
				-3.44474938174244e-06
			]
		},
		{
			"children":[
				42
			],
			"name":"defaultMaterial.019_22",
			"scale":[
				0.14018867909908295,
				0.05222102254629135,
				0.14018869400024414
			],
			"translation":[
				2.421483039855957,
				0.38599956035614014,
				4.500041484832764
			]
		},
		{
			"mesh":22,
			"name":"Object_49",
			"translation":[
				0,
				0,
				4.38305460193078e-06
			]
		},
		{
			"children":[
				44
			],
			"name":"defaultMaterial.020_23",
			"scale":[
				0.10470516234636307,
				0.10470519214868546,
				0.10470519214868546
			],
			"translation":[
				2.421485185623169,
				0.4429174065589905,
				4.500039100646973
			]
		},
		{
			"mesh":23,
			"name":"Object_51",
			"translation":[
				0,
				0,
				8.33965532365255e-06
			]
		},
		{
			"children":[
				46
			],
			"name":"defaultMaterial.021_24",
			"scale":[
				0.10539086908102036,
				0.10539088398218155,
				0.10539088398218155
			],
			"translation":[
				0.5218686461448669,
				0.5571269392967224,
				5.621287822723389
			]
		},
		{
			"mesh":24,
			"name":"Object_53"
		},
		{
			"children":[
				48
			],
			"name":"defaultMaterial.022_25",
			"scale":[
				0.17455826699733734,
				0.10539088398218155,
				0.17455831170082092
			],
			"translation":[
				0.5218605995178223,
				0.34316855669021606,
				5.621283054351807
			]
		},
		{
			"mesh":25,
			"name":"Object_55",
			"translation":[
				0,
				0,
				-3.525381544022821e-06
			]
		},
		{
			"children":[
				50
			],
			"name":"defaultMaterial.023_26",
			"scale":[
				0.17455826699733734,
				0.10539088398218155,
				0.17455831170082092
			],
			"translation":[
				0.5218684673309326,
				0.37587669491767883,
				5.621286392211914
			]
		},
		{
			"mesh":26,
			"name":"Object_57",
			"translation":[
				0,
				0,
				-3.2496323001396377e-06
			]
		},
		{
			"children":[
				52
			],
			"name":"defaultMaterial.024_27",
			"scale":[
				0.10539086908102036,
				0.10539088398218155,
				0.10539088398218155
			],
			"translation":[
				0.521869421005249,
				0.4432354271411896,
				5.621283054351807
			]
		},
		{
			"mesh":27,
			"name":"Object_59"
		},
		{
			"children":[
				54
			],
			"name":"Plane.003_28",
			"rotation":[
				0,
				0.7071068286895752,
				0,
				0.7071067094802856
			],
			"scale":[
				3.2865097522735596,
				3.2865092754364014,
				3.2865099906921387
			],
			"translation":[
				0,
				-0.5011293292045593,
				0
			]
		},
		{
			"mesh":28,
			"name":"Object_61"
		},
		{
			"children":[
				56
			],
			"name":"Plane.004_29",
			"rotation":[
				0,
				0.7071066498756409,
				0,
				0.70710688829422
			],
			"scale":[
				3.293078899383545,
				3.2865092754364014,
				3.303745985031128
			],
			"translation":[
				0,
				-0.5011293292045593,
				-0.010152284055948257
			]
		},
		{
			"mesh":29,
			"name":"Object_63"
		},
		{
			"children":[
				58
			],
			"name":"Plane.006_30",
			"rotation":[
				0,
				0.7071068286895752,
				0,
				0.7071067094802856
			],
			"scale":[
				3.2865097522735596,
				3.2865092754364014,
				3.2865099906921387
			],
			"translation":[
				0,
				-0.5007858872413635,
				0
			]
		},
		{
			"mesh":30,
			"name":"Object_65"
		},
		{
			"children":[
				60
			],
			"name":"Plane.007_31",
			"rotation":[
				0,
				0.7071068286895752,
				0,
				0.7071067094802856
			],
			"scale":[
				3.2865097522735596,
				3.2865092754364014,
				3.2865099906921387
			],
			"translation":[
				0,
				-0.5015453696250916,
				0
			]
		},
		{
			"children":[
				1,
				3,
				5,
				7,
				9,
				11,
				13,
				15,
				17,
				19,
				21,
				23,
				25,
				27,
				29,
				31,
				33,
				35,
				37,
				39,
				41,
				43,
				45,
				47,
				49,
				51,
				53,
				55,
				57,
				59,
				61
			],
			"name":"Sketchfab_model_33",
			"rotation":[
				-0.70710688829422,
				0,
				0,
				0.7071066498756409
			],
			"scale":[
				0.25175249576568604,
				0.2517525255680084,
				0.2517525255680084
			]
		},
		{
			"children":[
				62
			],
			"name":"GLTF_SceneRootNode",
			"rotation":[
				0.70710688829422,
				0,
				0,
				0.7071066498756409
			]
		},
		{
			"children":[
				63
			],
			"name":"root"
		},
		{
			"children":[
				64
			],
			"name":"Sketchfab_model",
			"rotation":[
				-0.70710688829422,
				0,
				0,
				0.7071066498756409
			]
		}
	],
	"materials":[
		{
			"doubleSided":true,
			"name":"Material.004",
			"pbrMetallicRoughness":{
				"baseColorFactor":[
					0.3452639877796173,
					0.5575090050697327,
					0.609857976436615,
					1
				],
				"metallicFactor":0.4000000059604645,
				"roughnessFactor":0.20000000298023224
			}
		},
		{
			"doubleSided":true,
			"name":"Material.002",
			"pbrMetallicRoughness":{
				"baseColorFactor":[
					0.34729498624801636,
					0.4924960136413574,
					0.4773949980735779,
					1
				],
				"metallicFactor":0.4000000059604645,
				"roughnessFactor":0.25
			}
		},
		{
			"alphaMode":"BLEND",
			"doubleSided":true,
			"extensions":{
				"KHR_materials_specular":{
					"specularTexture":{
						"index":0,
						"texCoord":1
					}
				}
			},
			"name":"Glass_Camera_Logo",
			"occlusionTexture":{
				"index":1
			},
			"pbrMetallicRoughness":{
				"baseColorTexture":{
					"index":2
				},
				"metallicRoughnessTexture":{
					"index":1
				}
			}
		},
		{
			"doubleSided":true,
			"name":"Plastic",
			"occlusionTexture":{
				"index":3
			},
			"pbrMetallicRoughness":{
				"baseColorTexture":{
					"index":4
				},
				"metallicRoughnessTexture":{
					"index":3
				}
			}
		},
		{
			"doubleSided":true,
			"name":"Screen_Rim",
			"occlusionTexture":{
				"index":5
			},
			"pbrMetallicRoughness":{
				"baseColorTexture":{
					"index":6
				},
				"metallicRoughnessTexture":{
					"index":5
				}
			}
		},
		{
			"doubleSided":true,
			"name":"Grill_USB",
			"pbrMetallicRoughness":{
				"baseColorTexture":{
					"index":7
				},
				"metallicRoughnessTexture":{
					"index":8
				}
			}
		},
		{
			"alphaMode":"BLEND",
			"doubleSided":true,
			"name":"Camera_Pixel_Glass_002",
			"occlusionTexture":{
				"index":9
			},
			"pbrMetallicRoughness":{
				"baseColorTexture":{
					"index":10
				},
				"metallicRoughnessTexture":{
					"index":9
				}
			}
		},
		{
			"doubleSided":true,
			"extensions":{
				"KHR_materials_specular":{
					"specularTexture":{
						"index":11,
						"texCoord":1
					}
				}
			},
			"name":"Camera_Pixel__002",
			"occlusionTexture":{
				"index":12
			},
			"pbrMetallicRoughness":{
				"baseColorTexture":{
					"index":13
				},
				"metallicRoughnessTexture":{
					"index":12
				}
			}
		},
		{
			"doubleSided":true,
			"name":"Rim_Buttons",
			"normalTexture":{
				"index":14
			},
			"occlusionTexture":{
				"index":15
			},
			"pbrMetallicRoughness":{
				"baseColorTexture":{
					"index":16
				},
				"metallicRoughnessTexture":{
					"index":15
				}
			}
		},
		{
			"doubleSided":true,
			"name":"Flash_Glass_002",
			"occlusionTexture":{
				"index":17
			},
			"pbrMetallicRoughness":{
				"metallicRoughnessTexture":{
					"index":17
				}
			}
		},
		{
			"doubleSided":true,
			"name":"Flash_002",
			"occlusionTexture":{
				"index":18
			},
			"pbrMetallicRoughness":{
				"metallicRoughnessTexture":{
					"index":18
				}
			}
		},
		{
			"doubleSided":true,
			"emissiveFactor":[
				1,
				1,
				1
			],
			"emissiveTexture":{
				"index":19
			},
			"extensions":{
				"KHR_materials_specular":{
					"specularTexture":{
						"index":20,
						"texCoord":1
					}
				}
			},
			"name":"Screen_BG",
			"occlusionTexture":{
				"index":21
			},
			"pbrMetallicRoughness":{
				"baseColorTexture":{
					"index":22
				},
				"metallicRoughnessTexture":{
					"index":21
				}
			}
		},
		{
			"doubleSided":true,
			"name":"Screw",
			"normalTexture":{
				"index":23
			},
			"occlusionTexture":{
				"index":24
			},
			"pbrMetallicRoughness":{
				"baseColorTexture":{
					"index":25
				},
				"metallicRoughnessTexture":{
					"index":24
				}
			}
		},
		{
			"doubleSided":true,
			"name":"Screen_Glass",
			"occlusionTexture":{
				"index":26
			},
			"pbrMetallicRoughness":{
				"metallicRoughnessTexture":{
					"index":26
				}
			}
		},
		{
			"doubleSided":true,
			"name":"Material.001",
			"pbrMetallicRoughness":{
				"baseColorFactor":[
					0.029711000621318817,
					0.029711000621318817,
					0.029711000621318817,
					1
				],
				"metallicFactor":0.5321099758148193,
				"roughnessFactor":0
			}
		},
		{
			"doubleSided":true,
			"name":"Material.003",
			"pbrMetallicRoughness":{
				"baseColorFactor":[
					0,
					0,
					0,
					1
				],
				"metallicFactor":0,
				"roughnessFactor":0.5
			}
		}
	],
	"meshes":[
		{
			"name":"Object_1",
			"primitives":[
				{
					"attributes":{
						"POSITION":0,
						"NORMAL":1,
						"TEXCOORD_0":2
					},
					"indices":3,
					"material":0
				}
			]
		},
		{
			"name":"Object_2",
			"primitives":[
				{
					"attributes":{
						"POSITION":4,
						"NORMAL":5,
						"TEXCOORD_0":6
					},
					"indices":3,
					"material":0
				}
			]
		},
		{
			"name":"Object_0",
			"primitives":[
				{
					"attributes":{
						"POSITION":7,
						"NORMAL":8,
						"TEXCOORD_0":9
					},
					"indices":3,
					"material":0
				}
			]
		},
		{
			"name":"Object_3",
			"primitives":[
				{
					"attributes":{
						"POSITION":10,
						"NORMAL":11,
						"TEXCOORD_0":12,
						"TEXCOORD_1":13
					},
					"indices":14,
					"material":1
				}
			]
		},
		{
			"name":"Object_4",
			"primitives":[
				{
					"attributes":{
						"POSITION":15,
						"NORMAL":16,
						"TEXCOORD_0":17,
						"TEXCOORD_1":18,
						"TEXCOORD_2":19,
						"TEXCOORD_3":20,
						"TEXCOORD_4":21
					},
					"indices":22,
					"material":2
				}
			]
		},
		{
			"name":"Object_5",
			"primitives":[
				{
					"attributes":{
						"POSITION":23,
						"NORMAL":24,
						"TEXCOORD_0":25,
						"TEXCOORD_1":26,
						"TEXCOORD_2":27,
						"TEXCOORD_3":28,
						"TEXCOORD_4":29
					},
					"indices":30,
					"material":3
				}
			]
		},
		{
			"name":"Object_6",
			"primitives":[
				{
					"attributes":{
						"POSITION":31,
						"NORMAL":32,
						"TEXCOORD_0":33,
						"TEXCOORD_1":34,
						"TEXCOORD_2":35,
						"TEXCOORD_3":36,
						"TEXCOORD_4":37
					},
					"indices":38,
					"material":4
				}
			]
		},
		{
			"name":"Object_7",
			"primitives":[
				{
					"attributes":{
						"POSITION":39,
						"NORMAL":40,
						"TEXCOORD_0":41,
						"TEXCOORD_1":42,
						"TEXCOORD_2":43,
						"TEXCOORD_3":44,
						"TEXCOORD_4":45
					},
					"indices":46,
					"material":5
				}
			]
		},
		{
			"name":"Object_8",
			"primitives":[
				{
					"attributes":{
						"POSITION":47,
						"NORMAL":48,
						"TEXCOORD_0":49,
						"TEXCOORD_1":50,
						"TEXCOORD_2":51,
						"TEXCOORD_3":52,
						"TEXCOORD_4":53
					},
					"indices":54,
					"material":6
				}
			]
		},
		{
			"name":"Object_9",
			"primitives":[
				{
					"attributes":{
						"POSITION":55,
						"NORMAL":56,
						"TEXCOORD_0":57,
						"TEXCOORD_1":58,
						"TEXCOORD_2":59,
						"TEXCOORD_3":60,
						"TEXCOORD_4":61
					},
					"indices":62,
					"material":7
				}
			]
		},
		{
			"name":"Object_10",
			"primitives":[
				{
					"attributes":{
						"POSITION":63,
						"NORMAL":64,
						"TEXCOORD_0":65,
						"TEXCOORD_1":66,
						"TEXCOORD_2":67,
						"TEXCOORD_3":68,
						"TEXCOORD_4":69
					},
					"indices":70,
					"material":3
				}
			]
		},
		{
			"name":"Object_11",
			"primitives":[
				{
					"attributes":{
						"POSITION":71,
						"NORMAL":72,
						"TEXCOORD_0":73,
						"TEXCOORD_1":74,
						"TEXCOORD_2":75,
						"TEXCOORD_3":76,
						"TEXCOORD_4":77,
						"TEXCOORD_5":78
					},
					"indices":79,
					"material":8
				}
			]
		},
		{
			"name":"Object_12",
			"primitives":[
				{
					"attributes":{
						"POSITION":80,
						"NORMAL":81,
						"TEXCOORD_0":82,
						"TEXCOORD_1":83,
						"TEXCOORD_2":84,
						"TEXCOORD_3":85
					},
					"indices":86,
					"material":9
				}
			]
		},
		{
			"name":"Object_13",
			"primitives":[
				{
					"attributes":{
						"POSITION":87,
						"NORMAL":88,
						"TEXCOORD_0":89,
						"TEXCOORD_1":90,
						"TEXCOORD_2":91,
						"TEXCOORD_3":92
					},
					"indices":93,
					"material":10
				}
			]
		},
		{
			"name":"Object_14",
			"primitives":[
				{
					"attributes":{
						"POSITION":94,
						"NORMAL":95,
						"TEXCOORD_0":96,
						"TEXCOORD_1":97,
						"TEXCOORD_2":98,
						"TEXCOORD_3":99,
						"TEXCOORD_4":100,
						"TEXCOORD_5":101
					},
					"indices":102,
					"material":11
				}
			]
		},
		{
			"name":"Object_15",
			"primitives":[
				{
					"attributes":{
						"POSITION":103,
						"NORMAL":104,
						"TEXCOORD_0":105,
						"TEXCOORD_1":106,
						"TEXCOORD_2":107,
						"TEXCOORD_3":108,
						"TEXCOORD_4":109,
						"TEXCOORD_5":110
					},
					"indices":111,
					"material":12
				}
			]
		},
		{
			"name":"Object_16",
			"primitives":[
				{
					"attributes":{
						"POSITION":112,
						"NORMAL":113,
						"TEXCOORD_0":114,
						"TEXCOORD_1":115,
						"TEXCOORD_2":116,
						"TEXCOORD_3":117
					},
					"indices":118,
					"material":13
				}
			]
		},
		{
			"name":"Object_17",
			"primitives":[
				{
					"attributes":{
						"POSITION":119,
						"NORMAL":120,
						"TEXCOORD_0":121,
						"TEXCOORD_1":122,
						"TEXCOORD_2":123,
						"TEXCOORD_3":124,
						"TEXCOORD_4":125
					},
					"indices":126,
					"material":6
				}
			]
		},
		{
			"name":"Object_18",
			"primitives":[
				{
					"attributes":{
						"POSITION":127,
						"NORMAL":128,
						"TEXCOORD_0":129,
						"TEXCOORD_1":130,
						"TEXCOORD_2":131,
						"TEXCOORD_3":132,
						"TEXCOORD_4":133
					},
					"indices":134,
					"material":7
				}
			]
		},
		{
			"name":"Object_19",
			"primitives":[
				{
					"attributes":{
						"POSITION":135,
						"NORMAL":136,
						"TEXCOORD_0":137,
						"TEXCOORD_1":138,
						"TEXCOORD_2":139,
						"TEXCOORD_3":140
					},
					"indices":141,
					"material":13
				}
			]
		},
		{
			"name":"Object_20",
			"primitives":[
				{
					"attributes":{
						"POSITION":142,
						"NORMAL":143,
						"TEXCOORD_0":144,
						"TEXCOORD_1":145,
						"TEXCOORD_2":146,
						"TEXCOORD_3":147,
						"TEXCOORD_4":148
					},
					"indices":149,
					"material":6
				}
			]
		},
		{
			"name":"Object_21",
			"primitives":[
				{
					"attributes":{
						"POSITION":150,
						"NORMAL":151,
						"TEXCOORD_0":152,
						"TEXCOORD_1":153,
						"TEXCOORD_2":154,
						"TEXCOORD_3":155,
						"TEXCOORD_4":156
					},
					"indices":157,
					"material":7
				}
			]
		},
		{
			"name":"Object_22",
			"primitives":[
				{
					"attributes":{
						"POSITION":158,
						"NORMAL":159,
						"TEXCOORD_0":160,
						"TEXCOORD_1":161,
						"TEXCOORD_2":162,
						"TEXCOORD_3":163,
						"TEXCOORD_4":164
					},
					"indices":165,
					"material":3
				}
			]
		},
		{
			"name":"Object_23",
			"primitives":[
				{
					"attributes":{
						"POSITION":166,
						"NORMAL":167,
						"TEXCOORD_0":168,
						"TEXCOORD_1":169,
						"TEXCOORD_2":170,
						"TEXCOORD_3":171
					},
					"indices":141,
					"material":13
				}
			]
		},
		{
			"name":"Object_24",
			"primitives":[
				{
					"attributes":{
						"POSITION":172,
						"NORMAL":173,
						"TEXCOORD_0":174,
						"TEXCOORD_1":175,
						"TEXCOORD_2":176,
						"TEXCOORD_3":177,
						"TEXCOORD_4":178
					},
					"indices":149,
					"material":6
				}
			]
		},
		{
			"name":"Object_25",
			"primitives":[
				{
					"attributes":{
						"POSITION":179,
						"NORMAL":180,
						"TEXCOORD_0":181,
						"TEXCOORD_1":182,
						"TEXCOORD_2":183,
						"TEXCOORD_3":184,
						"TEXCOORD_4":185
					},
					"indices":157,
					"material":7
				}
			]
		},
		{
			"name":"Object_26",
			"primitives":[
				{
					"attributes":{
						"POSITION":186,
						"NORMAL":187,
						"TEXCOORD_0":188,
						"TEXCOORD_1":189,
						"TEXCOORD_2":190,
						"TEXCOORD_3":191,
						"TEXCOORD_4":192
					},
					"indices":165,
					"material":3
				}
			]
		},
		{
			"name":"Object_27",
			"primitives":[
				{
					"attributes":{
						"POSITION":193,
						"NORMAL":194,
						"TEXCOORD_0":195
					},
					"indices":196,
					"material":1
				}
			]
		},
		{
			"name":"Object_28",
			"primitives":[
				{
					"attributes":{
						"POSITION":197,
						"NORMAL":198,
						"TEXCOORD_0":199
					},
					"indices":200,
					"material":1
				}
			]
		},
		{
			"name":"Object_29",
			"primitives":[
				{
					"attributes":{
						"POSITION":201,
						"NORMAL":202,
						"TEXCOORD_0":203
					},
					"indices":204,
					"material":14
				}
			]
		},
		{
			"name":"Object_30",
			"primitives":[
				{
					"attributes":{
						"POSITION":205,
						"NORMAL":206,
						"TEXCOORD_0":207
					},
					"indices":208,
					"material":15
				}
			]
		}
	],
	"textures":[
		{
			"sampler":0,
			"source":0
		},
		{
			"sampler":0,
			"source":1
		},
		{
			"sampler":0,
			"source":2
		},
		{
			"sampler":0,
			"source":3
		},
		{
			"sampler":0,
			"source":4
		},
		{
			"sampler":0,
			"source":5
		},
		{
			"sampler":0,
			"source":6
		},
		{
			"sampler":0,
			"source":7
		},
		{
			"sampler":0,
			"source":8
		},
		{
			"sampler":0,
			"source":9
		},
		{
			"sampler":0,
			"source":10
		},
		{
			"sampler":0,
			"source":11
		},
		{
			"sampler":0,
			"source":12
		},
		{
			"sampler":0,
			"source":13
		},
		{
			"sampler":0,
			"source":14
		},
		{
			"sampler":0,
			"source":15
		},
		{
			"sampler":0,
			"source":16
		},
		{
			"sampler":0,
			"source":17
		},
		{
			"sampler":0,
			"source":18
		},
		{
			"sampler":0,
			"source":19
		},
		{
			"sampler":0,
			"source":20
		},
		{
			"sampler":0,
			"source":21
		},
		{
			"sampler":0,
			"source":22
		},
		{
			"sampler":0,
			"source":23
		},
		{
			"sampler":0,
			"source":24
		},
		{
			"sampler":0,
			"source":25
		},
		{
			"sampler":0,
			"source":26
		}
	],
	"images":[
		{
			"mimeType":"image/png",
			"name":"Glass_Camera_Logo_specularf0",
			"uri":"Glass_Camera_Logo_specularf0.png"
		},
		{
			"mimeType":"image/png",
			"name":"Glass_Camera_Logo_metallicRoughness",
			"uri":"Glass_Camera_Logo_metallicRoughness.png"
		},
		{
			"mimeType":"image/png",
			"name":"Glass_Camera_Logo_baseColor",
			"uri":"Glass_Camera_Logo_baseColor.png"
		},
		{
			"mimeType":"image/png",
			"name":"Plastic_metallicRoughness",
			"uri":"Plastic_metallicRoughness.png"
		},
		{
			"mimeType":"image/jpeg",
			"name":"Plastic_baseColor",
			"uri":"Plastic_baseColor.jpg"
		},
		{
			"mimeType":"image/png",
			"name":"Screen_Rim_metallicRoughness",
			"uri":"Screen_Rim_metallicRoughness.png"
		},
		{
			"mimeType":"image/jpeg",
			"name":"Screen_Rim_baseColor",
			"uri":"Screen_Rim_baseColor.jpg"
		},
		{
			"mimeType":"image/jpeg",
			"name":"Grill_USB_baseColor",
			"uri":"Grill_USB_baseColor.jpg"
		},
		{
			"mimeType":"image/png",
			"name":"Grill_USB_metallicRoughness",
			"uri":"Grill_USB_metallicRoughness.png"
		},
		{
			"mimeType":"image/png",
			"name":"Camera_Pixel_Glass_002_metallicRoughness",
			"uri":"Camera_Pixel_Glass_002_metallicRoughness.png"
		},
		{
			"mimeType":"image/png",
			"name":"Camera_Pixel_Glass_002_baseColor",
			"uri":"Camera_Pixel_Glass_002_baseColor.png"
		},
		{
			"mimeType":"image/png",
			"name":"Camera_Pixel__002_specularf0",
			"uri":"Camera_Pixel__002_specularf0.png"
		},
		{
			"mimeType":"image/png",
			"name":"Camera_Pixel__002_metallicRoughness",
			"uri":"Camera_Pixel__002_metallicRoughness.png"
		},
		{
			"mimeType":"image/png",
			"name":"Camera_Pixel__002_baseColor",
			"uri":"Camera_Pixel__002_baseColor.png"
		},
		{
			"mimeType":"image/png",
			"name":"Rim_Buttons_normal",
			"uri":"Rim_Buttons_normal.png"
		},
		{
			"mimeType":"image/png",
			"name":"Rim_Buttons_metallicRoughness",
			"uri":"Rim_Buttons_metallicRoughness.png"
		},
		{
			"mimeType":"image/jpeg",
			"name":"Rim_Buttons_baseColor",
			"uri":"Rim_Buttons_baseColor.jpg"
		},
		{
			"mimeType":"image/png",
			"name":"Flash_Glass_002_metallicRoughness",
			"uri":"Flash_Glass_002_metallicRoughness.png"
		},
		{
			"mimeType":"image/png",
			"name":"Flash_002_metallicRoughness",
			"uri":"Flash_002_metallicRoughness.png"
		},
		{
			"mimeType":"image/jpeg",
			"name":"Screen_BG_emissive",
			"uri":"Screen_BG_emissive.jpg"
		},
		{
			"mimeType":"image/png",
			"name":"Screen_BG_specularf0",
			"uri":"Screen_BG_specularf0.png"
		},
		{
			"mimeType":"image/png",
			"name":"Screen_BG_metallicRoughness",
			"uri":"Screen_BG_metallicRoughness.png"
		},
		{
			"mimeType":"image/jpeg",
			"name":"Screen_BG_baseColor",
			"uri":"Screen_BG_baseColor.jpg"
		},
		{
			"mimeType":"image/png",
			"name":"Screw_normal",
			"uri":"Screw_normal.png"
		},
		{
			"mimeType":"image/png",
			"name":"Screw_metallicRoughness",
			"uri":"Screw_metallicRoughness.png"
		},
		{
			"mimeType":"image/jpeg",
			"name":"Screw_baseColor",
			"uri":"Screw_baseColor.jpg"
		},
		{
			"mimeType":"image/png",
			"name":"Screen_Glass_metallicRoughness",
			"uri":"Screen_Glass_metallicRoughness.png"
		}
	],
	"accessors":[
		{
			"bufferView":0,
			"componentType":5126,
			"count":258,
			"max":[
				0.30884602665901184,
				1.6268298625946045,
				0.9423003792762756
			],
			"min":[
				0.26685813069343567,
				1.138493537902832,
				0.45396390557289124
			],
			"type":"VEC3"
		},
		{
			"bufferView":1,
			"componentType":5126,
			"count":258,
			"type":"VEC3"
		},
		{
			"bufferView":2,
			"componentType":5126,
			"count":258,
			"type":"VEC2"
		},
		{
			"bufferView":3,
			"componentType":5123,
			"count":768,
			"type":"SCALAR"
		},
		{
			"bufferView":4,
			"componentType":5126,
			"count":258,
			"max":[
				0.30884602665901184,
				1.9476796388626099,
				0.4001725912094116
			],
			"min":[
				0.26685813069343567,
				1.4593431949615479,
				-0.08816391229629517
			],
			"type":"VEC3"
		},
		{
			"bufferView":5,
			"componentType":5126,
			"count":258,
			"type":"VEC3"
		},
		{
			"bufferView":6,
			"componentType":5126,
			"count":258,
			"type":"VEC2"
		},
		{
			"bufferView":7,
			"componentType":5126,
			"count":258,
			"max":[
				0.012161672115325928,
				0.24416756629943848,
				0.24416828155517578
			],
			"min":[
				-0.029826223850250244,
				-0.24416875839233398,
				-0.24416819214820862
			],
			"type":"VEC3"
		},
		{
			"bufferView":8,
			"componentType":5126,
			"count":258,
			"type":"VEC3"
		},
		{
			"bufferView":9,
			"componentType":5126,
			"count":258,
			"type":"VEC2"
		},
		{
			"bufferView":10,
			"componentType":5126,
			"count":3721,
			"max":[
				38.9000244140625,
				3.874514102935791,
				80.50730895996094
			],
			"min":[
				-38.900028228759766,
				-3.8661789894104004,
				-80.39273071289062
			],
			"type":"VEC3"
		},
		{
			"bufferView":11,
			"componentType":5126,
			"count":3721,
			"type":"VEC3"
		},
		{
			"bufferView":12,
			"componentType":5126,
			"count":3721,
			"type":"VEC2"
		},
		{
			"bufferView":13,
			"componentType":5126,
			"count":3721,
			"type":"VEC2"
		},
		{
			"bufferView":14,
			"componentType":5123,
			"count":10560,
			"type":"SCALAR"
		},
		{
			"bufferView":15,
			"componentType":5126,
			"count":16045,
			"max":[
				8.171351432800293,
				3.337860107421875e-06,
				12.429370880126953
			],
			"min":[
				-8.547329902648926,
				-0.0033025145530700684,
				-8.334043502807617
			],
			"type":"VEC3"
		},
		{
			"bufferView":16,
			"componentType":5126,
			"count":16045,
			"type":"VEC3"
		},
		{
			"bufferView":17,
			"componentType":5126,
			"count":16045,
			"type":"VEC2"
		},
		{
			"bufferView":18,
			"componentType":5126,
			"count":16045,
			"type":"VEC2"
		},
		{
			"bufferView":19,
			"componentType":5126,
			"count":16045,
			"type":"VEC2"
		},
		{
			"bufferView":20,
			"componentType":5126,
			"count":16045,
			"type":"VEC2"
		},
		{
			"bufferView":21,
			"componentType":5126,
			"count":16045,
			"type":"VEC2"
		},
		{
			"bufferView":22,
			"componentType":5123,
			"count":23244,
			"type":"SCALAR"
		},
		{
			"bufferView":23,
			"componentType":5126,
			"count":1345,
			"max":[
				7.030445098876953,
				0.596733570098877,
				7.030342102050781
			],
			"min":[
				-7.030460357666016,
				-1.5079792737960815,
				-7.0305633544921875
			],
			"type":"VEC3"
		},
		{
			"bufferView":24,
			"componentType":5126,
			"count":1345,
			"type":"VEC3"
		},
		{
			"bufferView":25,
			"componentType":5126,
			"count":1345,
			"type":"VEC2"
		},
		{
			"bufferView":26,
			"componentType":5126,
			"count":1345,
			"type":"VEC2"
		},
		{
			"bufferView":27,
			"componentType":5126,
			"count":1345,
			"type":"VEC2"
		},
		{
			"bufferView":28,
			"componentType":5126,
			"count":1345,
			"type":"VEC2"
		},
		{
			"bufferView":29,
			"componentType":5126,
			"count":1345,
			"type":"VEC2"
		},
		{
			"bufferView":30,
			"componentType":5123,
			"count":5952,
			"type":"SCALAR"
		},
		{
			"bufferView":31,
			"componentType":5126,
			"count":1795,
			"max":[
				38.20712661743164,
				2.1745989322662354,
				79.81441497802734
			],
			"min":[
				-38.20711898803711,
				-3.4089510440826416,
				-79.6998519897461
			],
			"type":"VEC3"
		},
		{
			"bufferView":32,
			"componentType":5126,
			"count":1795,
			"type":"VEC3"
		},
		{
			"bufferView":33,
			"componentType":5126,
			"count":1795,
			"type":"VEC2"
		},
		{
			"bufferView":34,
			"componentType":5126,
			"count":1795,
			"type":"VEC2"
		},
		{
			"bufferView":35,
			"componentType":5126,
			"count":1795,
			"type":"VEC2"
		},
		{
			"bufferView":36,
			"componentType":5126,
			"count":1795,
			"type":"VEC2"
		},
		{
			"bufferView":37,
			"componentType":5126,
			"count":1795,
			"type":"VEC2"
		},
		{
			"bufferView":38,
			"componentType":5123,
			"count":3282,
			"type":"SCALAR"
		},
		{
			"bufferView":39,
			"componentType":5126,
			"count":18153,
			"max":[
				25.985755920410156,
				1.7429089546203613,
				-74.1992416381836
			],
			"min":[
				-23.30912208557129,
				-1.1808079481124878,
				-79.2908935546875
			],
			"type":"VEC3"
		},
		{
			"bufferView":40,
			"componentType":5126,
			"count":18153,
			"type":"VEC3"
		},
		{
			"bufferView":41,
			"componentType":5126,
			"count":18153,
			"type":"VEC2"
		},
		{
			"bufferView":42,
			"componentType":5126,
			"count":18153,
			"type":"VEC2"
		},
		{
			"bufferView":43,
			"componentType":5126,
			"count":18153,
			"type":"VEC2"
		},
		{
			"bufferView":44,
			"componentType":5126,
			"count":18153,
			"type":"VEC2"
		},
		{
			"bufferView":45,
			"componentType":5126,
			"count":18153,
			"type":"VEC2"
		},
		{
			"bufferView":46,
			"componentType":5123,
			"count":40212,
			"type":"SCALAR"
		},
		{
			"bufferView":47,
			"componentType":5126,
			"count":331,
			"max":[
				8.246633529663086,
				-2.324965000152588,
				73.5685806274414
			],
			"min":[
				6.198983192443848,
				-3.503912925720215,
				71.52092742919922
			],
			"type":"VEC3"
		},
		{
			"bufferView":48,
			"componentType":5126,
			"count":331,
			"type":"VEC3"
		},
		{
			"bufferView":49,
			"componentType":5126,
			"count":331,
			"type":"VEC2"
		},
		{
			"bufferView":50,
			"componentType":5126,
			"count":331,
			"type":"VEC2"
		},
		{
			"bufferView":51,
			"componentType":5126,
			"count":331,
			"type":"VEC2"
		},
		{
			"bufferView":52,
			"componentType":5126,
			"count":331,
			"type":"VEC2"
		},
		{
			"bufferView":53,
			"componentType":5126,
			"count":331,
			"type":"VEC2"
		},
		{
			"bufferView":54,
			"componentType":5123,
			"count":1632,
			"type":"SCALAR"
		},
		{
			"bufferView":55,
			"componentType":5126,
			"count":331,
			"max":[
				8.116399765014648,
				-2.324965000152588,
				73.43833923339844
			],
			"min":[
				6.329222202301025,
				-3.3736770153045654,
				71.65116882324219
			],
			"type":"VEC3"
		},
		{
			"bufferView":56,
			"componentType":5126,
			"count":331,
			"type":"VEC3"
		},
		{
			"bufferView":57,
			"componentType":5126,
			"count":331,
			"type":"VEC2"
		},
		{
			"bufferView":58,
			"componentType":5126,
			"count":331,
			"type":"VEC2"
		},
		{
			"bufferView":59,
			"componentType":5126,
			"count":331,
			"type":"VEC2"
		},
		{
			"bufferView":60,
			"componentType":5126,
			"count":331,
			"type":"VEC2"
		},
		{
			"bufferView":61,
			"componentType":5126,
			"count":331,
			"type":"VEC2"
		},
		{
			"bufferView":62,
			"componentType":5123,
			"count":1632,
			"type":"SCALAR"
		},
		{
			"bufferView":63,
			"componentType":5126,
			"count":24,
			"max":[
				2.9739699363708496,
				0.4658510088920593,
				-74.3030776977539
			],
			"min":[
				-2.834243059158325,
				0.007898000068962574,
				-79.39472198486328
			],
			"type":"VEC3"
		},
		{
			"bufferView":64,
			"componentType":5126,
			"count":24,
			"type":"VEC3"
		},
		{
			"bufferView":65,
			"componentType":5126,
			"count":24,
			"type":"VEC2"
		},
		{
			"bufferView":66,
			"componentType":5126,
			"count":24,
			"type":"VEC2"
		},
		{
			"bufferView":67,
			"componentType":5126,
			"count":24,
			"type":"VEC2"
		},
		{
			"bufferView":68,
			"componentType":5126,
			"count":24,
			"type":"VEC2"
		},
		{
			"bufferView":69,
			"componentType":5126,
			"count":24,
			"type":"VEC2"
		},
		{
			"bufferView":70,
			"componentType":5123,
			"count":36,
			"type":"SCALAR"
		},
		{
			"bufferView":71,
			"componentType":5126,
			"count":24932,
			"max":[
				39.302955627441406,
				3.8839900493621826,
				80.50730895996094
			],
			"min":[
				-39.35318374633789,
				-3.8738820552825928,
				-80.39273834228516
			],
			"type":"VEC3"
		},
		{
			"bufferView":72,
			"componentType":5126,
			"count":24932,
			"type":"VEC3"
		},
		{
			"bufferView":73,
			"componentType":5126,
			"count":24932,
			"type":"VEC2"
		},
		{
			"bufferView":74,
			"componentType":5126,
			"count":24932,
			"type":"VEC2"
		},
		{
			"bufferView":75,
			"componentType":5126,
			"count":24932,
			"type":"VEC2"
		},
		{
			"bufferView":76,
			"componentType":5126,
			"count":24932,
			"type":"VEC2"
		},
		{
			"bufferView":77,
			"componentType":5126,
			"count":24932,
			"type":"VEC2"
		},
		{
			"bufferView":78,
			"componentType":5126,
			"count":24932,
			"type":"VEC2"
		},
		{
			"bufferView":79,
			"componentType":5123,
			"count":84480,
			"type":"SCALAR"
		},
		{
			"bufferView":80,
			"componentType":5126,
			"count":924,
			"max":[
				3.0560264587402344,
				0.379058837890625,
				3.056049346923828
			],
			"min":[
				-3.0560193061828613,
				-1.5787361860275269,
				-3.0559959411621094
			],
			"type":"VEC3"
		},
		{
			"bufferView":81,
			"componentType":5126,
			"count":924,
			"type":"VEC3"
		},
		{
			"bufferView":82,
			"componentType":5126,
			"count":924,
			"type":"VEC2"
		},
		{
			"bufferView":83,
			"componentType":5126,
			"count":924,
			"type":"VEC2"
		},
		{
			"bufferView":84,
			"componentType":5126,
			"count":924,
			"type":"VEC2"
		},
		{
			"bufferView":85,
			"componentType":5126,
			"count":924,
			"type":"VEC2"
		},
		{
			"bufferView":86,
			"componentType":5123,
			"count":3360,
			"type":"SCALAR"
		},
		{
			"bufferView":87,
			"componentType":5126,
			"count":865,
			"max":[
				3.177971839904785,
				0.7975468635559082,
				3.1780471801757812
			],
			"min":[
				-3.1779332160949707,
				-0.692939043045044,
				-3.1778564453125
			],
			"type":"VEC3"
		},
		{
			"bufferView":88,
			"componentType":5126,
			"count":865,
			"type":"VEC3"
		},
		{
			"bufferView":89,
			"componentType":5126,
			"count":865,
			"type":"VEC2"
		},
		{
			"bufferView":90,
			"componentType":5126,
			"count":865,
			"type":"VEC2"
		},
		{
			"bufferView":91,
			"componentType":5126,
			"count":865,
			"type":"VEC2"
		},
		{
			"bufferView":92,
			"componentType":5126,
			"count":865,
			"type":"VEC2"
		},
		{
			"bufferView":93,
			"componentType":5123,
			"count":5088,
			"type":"SCALAR"
		},
		{
			"bufferView":94,
			"componentType":5126,
			"count":4516,
			"max":[
				38.20712661743164,
				-3.2757630348205566,
				79.81441497802734
			],
			"min":[
				-38.20711898803711,
				-3.275830030441284,
				-79.6998519897461
			],
			"type":"VEC3"
		},
		{
			"bufferView":95,
			"componentType":5126,
			"count":4516,
			"type":"VEC3"
		},
		{
			"bufferView":96,
			"componentType":5126,
			"count":4516,
			"type":"VEC2"
		},
		{
			"bufferView":97,
			"componentType":5126,
			"count":4516,
			"type":"VEC2"
		},
		{
			"bufferView":98,
			"componentType":5126,
			"count":4516,
			"type":"VEC2"
		},
		{
			"bufferView":99,
			"componentType":5126,
			"count":4516,
			"type":"VEC2"
		},
		{
			"bufferView":100,
			"componentType":5126,
			"count":4516,
			"type":"VEC2"
		},
		{
			"bufferView":101,
			"componentType":5126,
			"count":4516,
			"type":"VEC2"
		},
		{
			"bufferView":102,
			"componentType":5123,
			"count":4632,
			"type":"SCALAR"
		},
		{
			"bufferView":103,
			"componentType":5126,
			"count":3491,
			"max":[
				8.10616683959961,
				1.0616650581359863,
				-80.26346588134766
			],
			"min":[
				-8.104958534240723,
				-0.5586220026016235,
				-80.39270782470703
			],
			"type":"VEC3"
		},
		{
			"bufferView":104,
			"componentType":5126,
			"count":3491,
			"type":"VEC3"
		},
		{
			"bufferView":105,
			"componentType":5126,
			"count":3491,
			"type":"VEC2"
		},
		{
			"bufferView":106,
			"componentType":5126,
			"count":3491,
			"type":"VEC2"
		},
		{
			"bufferView":107,
			"componentType":5126,
			"count":3491,
			"type":"VEC2"
		},
		{
			"bufferView":108,
			"componentType":5126,
			"count":3491,
			"type":"VEC2"
		},
		{
			"bufferView":109,
			"componentType":5126,
			"count":3491,
			"type":"VEC2"
		},
		{
			"bufferView":110,
			"componentType":5126,
			"count":3491,
			"type":"VEC2"
		},
		{
			"bufferView":111,
			"componentType":5123,
			"count":14100,
			"type":"SCALAR"
		},
		{
			"bufferView":112,
			"componentType":5126,
			"count":2186,
			"max":[
				6.985246658325195,
				0.07900094985961914,
				6.985237121582031
			],
			"min":[
				-6.985296249389648,
				-0.7270302772521973,
				-6.985321044921875
			],
			"type":"VEC3"
		},
		{
			"bufferView":113,
			"componentType":5126,
			"count":2186,
			"type":"VEC3"
		},
		{
			"bufferView":114,
			"componentType":5126,
			"count":2186,
			"type":"VEC2"
		},
		{
			"bufferView":115,
			"componentType":5126,
			"count":2186,
			"type":"VEC2"
		},
		{
			"bufferView":116,
			"componentType":5126,
			"count":2186,
			"type":"VEC2"
		},
		{
			"bufferView":117,
			"componentType":5126,
			"count":2186,
			"type":"VEC2"
		},
		{
			"bufferView":118,
			"componentType":5123,
			"count":6912,
			"type":"SCALAR"
		},
		{
			"bufferView":119,
			"componentType":5126,
			"count":388,
			"max":[
				0.8652935028076172,
				0.841160774230957,
				0.865264892578125
			],
			"min":[
				-0.8653430938720703,
				-0.8366742134094238,
				-0.8653717041015625
			],
			"type":"VEC3"
		},
		{
			"bufferView":120,
			"componentType":5126,
			"count":388,
			"type":"VEC3"
		},
		{
			"bufferView":121,
			"componentType":5126,
			"count":388,
			"type":"VEC2"
		},
		{
			"bufferView":122,
			"componentType":5126,
			"count":388,
			"type":"VEC2"
		},
		{
			"bufferView":123,
			"componentType":5126,
			"count":388,
			"type":"VEC2"
		},
		{
			"bufferView":124,
			"componentType":5126,
			"count":388,
			"type":"VEC2"
		},
		{
			"bufferView":125,
			"componentType":5126,
			"count":388,
			"type":"VEC2"
		},
		{
			"bufferView":126,
			"componentType":5123,
			"count":1824,
			"type":"SCALAR"
		},
		{
			"bufferView":127,
			"componentType":5126,
			"count":353,
			"max":[
				0.7552452087402344,
				0.44483304023742676,
				0.7552642822265625
			],
			"min":[
				-0.7552452087402344,
				-0.44151902198791504,
				-0.7552261352539062
			],
			"type":"VEC3"
		},
		{
			"bufferView":128,
			"componentType":5126,
			"count":353,
			"type":"VEC3"
		},
		{
			"bufferView":129,
			"componentType":5126,
			"count":353,
			"type":"VEC2"
		},
		{
			"bufferView":130,
			"componentType":5126,
			"count":353,
			"type":"VEC2"
		},
		{
			"bufferView":131,
			"componentType":5126,
			"count":353,
			"type":"VEC2"
		},
		{
			"bufferView":132,
			"componentType":5126,
			"count":353,
			"type":"VEC2"
		},
		{
			"bufferView":133,
			"componentType":5126,
			"count":353,
			"type":"VEC2"
		},
		{
			"bufferView":134,
			"componentType":5123,
			"count":1632,
			"type":"SCALAR"
		},
		{
			"bufferView":135,
			"componentType":5126,
			"count":2180,
			"max":[
				6.9852447509765625,
				0.07900142669677734,
				6.985252380371094
			],
			"min":[
				-6.985298156738281,
				-0.7270293235778809,
				-6.985294342041016
			],
			"type":"VEC3"
		},
		{
			"bufferView":136,
			"componentType":5126,
			"count":2180,
			"type":"VEC3"
		},
		{
			"bufferView":137,
			"componentType":5126,
			"count":2180,
			"type":"VEC2"
		},
		{
			"bufferView":138,
			"componentType":5126,
			"count":2180,
			"type":"VEC2"
		},
		{
			"bufferView":139,
			"componentType":5126,
			"count":2180,
			"type":"VEC2"
		},
		{
			"bufferView":140,
			"componentType":5126,
			"count":2180,
			"type":"VEC2"
		},
		{
			"bufferView":141,
			"componentType":5123,
			"count":6912,
			"type":"SCALAR"
		},
		{
			"bufferView":142,
			"componentType":5126,
			"count":395,
			"max":[
				1.9249420166015625,
				1.871171474456787,
				1.9249267578125
			],
			"min":[
				-1.9248733520507812,
				-1.8611843585968018,
				-1.924896240234375
			],
			"type":"VEC3"
		},
		{
			"bufferView":143,
			"componentType":5126,
			"count":395,
			"type":"VEC3"
		},
		{
			"bufferView":144,
			"componentType":5126,
			"count":395,
			"type":"VEC2"
		},
		{
			"bufferView":145,
			"componentType":5126,
			"count":395,
			"type":"VEC2"
		},
		{
			"bufferView":146,
			"componentType":5126,
			"count":395,
			"type":"VEC2"
		},
		{
			"bufferView":147,
			"componentType":5126,
			"count":395,
			"type":"VEC2"
		},
		{
			"bufferView":148,
			"componentType":5126,
			"count":395,
			"type":"VEC2"
		},
		{
			"bufferView":149,
			"componentType":5123,
			"count":1824,
			"type":"SCALAR"
		},
		{
			"bufferView":150,
			"componentType":5126,
			"count":355,
			"max":[
				1.6800384521484375,
				0.9895305633544922,
				1.6800346374511719
			],
			"min":[
				-1.6800689697265625,
				-0.9821655750274658,
				-1.6800651550292969
			],
			"type":"VEC3"
		},
		{
			"bufferView":151,
			"componentType":5126,
			"count":355,
			"type":"VEC3"
		},
		{
			"bufferView":152,
			"componentType":5126,
			"count":355,
			"type":"VEC2"
		},
		{
			"bufferView":153,
			"componentType":5126,
			"count":355,
			"type":"VEC2"
		},
		{
			"bufferView":154,
			"componentType":5126,
			"count":355,
			"type":"VEC2"
		},
		{
			"bufferView":155,
			"componentType":5126,
			"count":355,
			"type":"VEC2"
		},
		{
			"bufferView":156,
			"componentType":5126,
			"count":355,
			"type":"VEC2"
		},
		{
			"bufferView":157,
			"componentType":5123,
			"count":1632,
			"type":"SCALAR"
		},
		{
			"bufferView":158,
			"componentType":5126,
			"count":396,
			"max":[
				7.030418395996094,
				0.46933746337890625,
				7.030479431152344
			],
			"min":[
				-7.030487060546875,
				-1.4281187057495117,
				-7.030422210693359
			],
			"type":"VEC3"
		},
		{
			"bufferView":159,
			"componentType":5126,
			"count":396,
			"type":"VEC3"
		},
		{
			"bufferView":160,
			"componentType":5126,
			"count":396,
			"type":"VEC2"
		},
		{
			"bufferView":161,
			"componentType":5126,
			"count":396,
			"type":"VEC2"
		},
		{
			"bufferView":162,
			"componentType":5126,
			"count":396,
			"type":"VEC2"
		},
		{
			"bufferView":163,
			"componentType":5126,
			"count":396,
			"type":"VEC2"
		},
		{
			"bufferView":164,
			"componentType":5126,
			"count":396,
			"type":"VEC2"
		},
		{
			"bufferView":165,
			"componentType":5123,
			"count":2112,
			"type":"SCALAR"
		},
		{
			"bufferView":166,
			"componentType":5126,
			"count":2180,
			"max":[
				6.9852447509765625,
				0.07900142669677734,
				6.985252380371094
			],
			"min":[
				-6.985298156738281,
				-0.7270293235778809,
				-6.985294342041016
			],
			"type":"VEC3"
		},
		{
			"bufferView":167,
			"componentType":5126,
			"count":2180,
			"type":"VEC3"
		},
		{
			"bufferView":168,
			"componentType":5126,
			"count":2180,
			"type":"VEC2"
		},
		{
			"bufferView":169,
			"componentType":5126,
			"count":2180,
			"type":"VEC2"
		},
		{
			"bufferView":170,
			"componentType":5126,
			"count":2180,
			"type":"VEC2"
		},
		{
			"bufferView":171,
			"componentType":5126,
			"count":2180,
			"type":"VEC2"
		},
		{
			"bufferView":172,
			"componentType":5126,
			"count":395,
			"max":[
				1.9249420166015625,
				1.871171474456787,
				1.9249267578125
			],
			"min":[
				-1.9248733520507812,
				-1.8611843585968018,
				-1.924896240234375
			],
			"type":"VEC3"
		},
		{
			"bufferView":173,
			"componentType":5126,
			"count":395,
			"type":"VEC3"
		},
		{
			"bufferView":174,
			"componentType":5126,
			"count":395,
			"type":"VEC2"
		},
		{
			"bufferView":175,
			"componentType":5126,
			"count":395,
			"type":"VEC2"
		},
		{
			"bufferView":176,
			"componentType":5126,
			"count":395,
			"type":"VEC2"
		},
		{
			"bufferView":177,
			"componentType":5126,
			"count":395,
			"type":"VEC2"
		},
		{
			"bufferView":178,
			"componentType":5126,
			"count":395,
			"type":"VEC2"
		},
		{
			"bufferView":179,
			"componentType":5126,
			"count":355,
			"max":[
				1.6800384521484375,
				0.9895305633544922,
				1.6800346374511719
			],
			"min":[
				-1.6800689697265625,
				-0.9821655750274658,
				-1.6800651550292969
			],
			"type":"VEC3"
		},
		{
			"bufferView":180,
			"componentType":5126,
			"count":355,
			"type":"VEC3"
		},
		{
			"bufferView":181,
			"componentType":5126,
			"count":355,
			"type":"VEC2"
		},
		{
			"bufferView":182,
			"componentType":5126,
			"count":355,
			"type":"VEC2"
		},
		{
			"bufferView":183,
			"componentType":5126,
			"count":355,
			"type":"VEC2"
		},
		{
			"bufferView":184,
			"componentType":5126,
			"count":355,
			"type":"VEC2"
		},
		{
			"bufferView":185,
			"componentType":5126,
			"count":355,
			"type":"VEC2"
		},
		{
			"bufferView":186,
			"componentType":5126,
			"count":396,
			"max":[
				7.030418395996094,
				0.46933746337890625,
				7.030479431152344
			],
			"min":[
				-7.030487060546875,
				-1.4281187057495117,
				-7.030422210693359
			],
			"type":"VEC3"
		},
		{
			"bufferView":187,
			"componentType":5126,
			"count":396,
			"type":"VEC3"
		},
		{
			"bufferView":188,
			"componentType":5126,
			"count":396,
			"type":"VEC2"
		},
		{
			"bufferView":189,
			"componentType":5126,
			"count":396,
			"type":"VEC2"
		},
		{
			"bufferView":190,
			"componentType":5126,
			"count":396,
			"type":"VEC2"
		},
		{
			"bufferView":191,
			"componentType":5126,
			"count":396,
			"type":"VEC2"
		},
		{
			"bufferView":192,
			"componentType":5126,
			"count":396,
			"type":"VEC2"
		},
		{
			"bufferView":193,
			"componentType":5126,
			"count":2605,
			"max":[
				-1.0426298379898071,
				0.27440714836120605,
				1.050549030303955
			],
			"min":[
				-2.316804885864258,
				0.2693159878253937,
				-1.0502656698226929
			],
			"type":"VEC3"
		},
		{
			"bufferView":194,
			"componentType":5126,
			"count":2605,
			"type":"VEC3"
		},
		{
			"bufferView":195,
			"componentType":5126,
			"count":2605,
			"type":"VEC2"
		},
		{
			"bufferView":196,
			"componentType":5123,
			"count":14586,
			"type":"SCALAR"
		},
		{
			"bufferView":197,
			"componentType":5126,
			"count":591,
			"max":[
				2.41741681098938,
				0.27440714836120605,
				1.1578254699707031
			],
			"min":[
				-2.4263668060302734,
				0.21762503683567047,
				-1.1578254699707031
			],
			"type":"VEC3"
		},
		{
			"bufferView":198,
			"componentType":5126,
			"count":591,
			"type":"VEC3"
		},
		{
			"bufferView":199,
			"componentType":5126,
			"count":591,
			"type":"VEC2"
		},
		{
			"bufferView":200,
			"componentType":5123,
			"count":3060,
			"type":"SCALAR"
		},
		{
			"bufferView":201,
			"componentType":5126,
			"count":48,
			"max":[
				-1.150360345840454,
				0.2704705595970154,
				-0.6552945375442505
			],
			"min":[
				-1.3483922481536865,
				0.2704704701900482,
				-0.8533264398574829
			],
			"type":"VEC3"
		},
		{
			"bufferView":202,
			"componentType":5126,
			"count":48,
			"type":"VEC3"
		},
		{
			"bufferView":203,
			"componentType":5126,
			"count":48,
			"type":"VEC2"
		},
		{
			"bufferView":204,
			"componentType":5123,
			"count":210,
			"type":"SCALAR"
		},
		{
			"bufferView":205,
			"componentType":5126,
			"count":16,
			"max":[
				-1.6691831350326538,
				0.2712271511554718,
				-0.7311697006225586
			],
			"min":[
				-1.702627420425415,
				0.2712271511554718,
				-0.7646141052246094
			],
			"type":"VEC3"
		},
		{
			"bufferView":206,
			"componentType":5126,
			"count":16,
			"type":"VEC3"
		},
		{
			"bufferView":207,
			"componentType":5126,
			"count":16,
			"type":"VEC2"
		},
		{
			"bufferView":208,
			"componentType":5123,
			"count":42,
			"type":"SCALAR"
		}
	],
	"bufferViews":[
		{
			"buffer":0,
			"byteLength":3096,
			"byteOffset":0,
			"target":34962
		},
		{
			"buffer":0,
			"byteLength":3096,
			"byteOffset":3096,
			"target":34962
		},
		{
			"buffer":0,
			"byteLength":2064,
			"byteOffset":6192,
			"target":34962
		},
		{
			"buffer":0,
			"byteLength":1536,
			"byteOffset":8256,
			"target":34963
		},
		{
			"buffer":0,
			"byteLength":3096,
			"byteOffset":9792,
			"target":34962
		},
		{
			"buffer":0,
			"byteLength":3096,
			"byteOffset":12888,
			"target":34962
		},
		{
			"buffer":0,
			"byteLength":2064,
			"byteOffset":15984,
			"target":34962
		},
		{
			"buffer":0,
			"byteLength":3096,
			"byteOffset":18048,
			"target":34962
		},
		{
			"buffer":0,
			"byteLength":3096,
			"byteOffset":21144,
			"target":34962
		},
		{
			"buffer":0,
			"byteLength":2064,
			"byteOffset":24240,
			"target":34962
		},
		{
			"buffer":0,
			"byteLength":44652,
			"byteOffset":26304,
			"target":34962
		},
		{
			"buffer":0,
			"byteLength":44652,
			"byteOffset":70956,
			"target":34962
		},
		{
			"buffer":0,
			"byteLength":29768,
			"byteOffset":115608,
			"target":34962
		},
		{
			"buffer":0,
			"byteLength":29768,
			"byteOffset":145376,
			"target":34962
		},
		{
			"buffer":0,
			"byteLength":21120,
			"byteOffset":175144,
			"target":34963
		},
		{
			"buffer":0,
			"byteLength":192540,
			"byteOffset":196264,
			"target":34962
		},
		{
			"buffer":0,
			"byteLength":192540,
			"byteOffset":388804,
			"target":34962
		},
		{
			"buffer":0,
			"byteLength":128360,
			"byteOffset":581344,
			"target":34962
		},
		{
			"buffer":0,
			"byteLength":128360,
			"byteOffset":709704,
			"target":34962
		},
		{
			"buffer":0,
			"byteLength":128360,
			"byteOffset":838064,
			"target":34962
		},
		{
			"buffer":0,
			"byteLength":128360,
			"byteOffset":966424,
			"target":34962
		},
		{
			"buffer":0,
			"byteLength":128360,
			"byteOffset":1094784,
			"target":34962
		},
		{
			"buffer":0,
			"byteLength":46488,
			"byteOffset":1223144,
			"target":34963
		},
		{
			"buffer":0,
			"byteLength":16140,
			"byteOffset":1269632,
			"target":34962
		},
		{
			"buffer":0,
			"byteLength":16140,
			"byteOffset":1285772,
			"target":34962
		},
		{
			"buffer":0,
			"byteLength":10760,
			"byteOffset":1301912,
			"target":34962
		},
		{
			"buffer":0,
			"byteLength":10760,
			"byteOffset":1312672,
			"target":34962
		},
		{
			"buffer":0,
			"byteLength":10760,
			"byteOffset":1323432,
			"target":34962
		},
		{
			"buffer":0,
			"byteLength":10760,
			"byteOffset":1334192,
			"target":34962
		},
		{
			"buffer":0,
			"byteLength":10760,
			"byteOffset":1344952,
			"target":34962
		},
		{
			"buffer":0,
			"byteLength":11904,
			"byteOffset":1355712,
			"target":34963
		},
		{
			"buffer":0,
			"byteLength":21540,
			"byteOffset":1367616,
			"target":34962
		},
		{
			"buffer":0,
			"byteLength":21540,
			"byteOffset":1389156,
			"target":34962
		},
		{
			"buffer":0,
			"byteLength":14360,
			"byteOffset":1410696,
			"target":34962
		},
		{
			"buffer":0,
			"byteLength":14360,
			"byteOffset":1425056,
			"target":34962
		},
		{
			"buffer":0,
			"byteLength":14360,
			"byteOffset":1439416,
			"target":34962
		},
		{
			"buffer":0,
			"byteLength":14360,
			"byteOffset":1453776,
			"target":34962
		},
		{
			"buffer":0,
			"byteLength":14360,
			"byteOffset":1468136,
			"target":34962
		},
		{
			"buffer":0,
			"byteLength":6564,
			"byteOffset":1482496,
			"target":34963
		},
		{
			"buffer":0,
			"byteLength":217836,
			"byteOffset":1489060,
			"target":34962
		},
		{
			"buffer":0,
			"byteLength":217836,
			"byteOffset":1706896,
			"target":34962
		},
		{
			"buffer":0,
			"byteLength":145224,
			"byteOffset":1924732,
			"target":34962
		},
		{
			"buffer":0,
			"byteLength":145224,
			"byteOffset":2069956,
			"target":34962
		},
		{
			"buffer":0,
			"byteLength":145224,
			"byteOffset":2215180,
			"target":34962
		},
		{
			"buffer":0,
			"byteLength":145224,
			"byteOffset":2360404,
			"target":34962
		},
		{
			"buffer":0,
			"byteLength":145224,
			"byteOffset":2505628,
			"target":34962
		},
		{
			"buffer":0,
			"byteLength":80424,
			"byteOffset":2650852,
			"target":34963
		},
		{
			"buffer":0,
			"byteLength":3972,
			"byteOffset":2731276,
			"target":34962
		},
		{
			"buffer":0,
			"byteLength":3972,
			"byteOffset":2735248,
			"target":34962
		},
		{
			"buffer":0,
			"byteLength":2648,
			"byteOffset":2739220,
			"target":34962
		},
		{
			"buffer":0,
			"byteLength":2648,
			"byteOffset":2741868,
			"target":34962
		},
		{
			"buffer":0,
			"byteLength":2648,
			"byteOffset":2744516,
			"target":34962
		},
		{
			"buffer":0,
			"byteLength":2648,
			"byteOffset":2747164,
			"target":34962
		},
		{
			"buffer":0,
			"byteLength":2648,
			"byteOffset":2749812,
			"target":34962
		},
		{
			"buffer":0,
			"byteLength":3264,
			"byteOffset":2752460,
			"target":34963
		},
		{
			"buffer":0,
			"byteLength":3972,
			"byteOffset":2755724,
			"target":34962
		},
		{
			"buffer":0,
			"byteLength":3972,
			"byteOffset":2759696,
			"target":34962
		},
		{
			"buffer":0,
			"byteLength":2648,
			"byteOffset":2763668,
			"target":34962
		},
		{
			"buffer":0,
			"byteLength":2648,
			"byteOffset":2766316,
			"target":34962
		},
		{
			"buffer":0,
			"byteLength":2648,
			"byteOffset":2768964,
			"target":34962
		},
		{
			"buffer":0,
			"byteLength":2648,
			"byteOffset":2771612,
			"target":34962
		},
		{
			"buffer":0,
			"byteLength":2648,
			"byteOffset":2774260,
			"target":34962
		},
		{
			"buffer":0,
			"byteLength":3264,
			"byteOffset":2776908,
			"target":34963
		},
		{
			"buffer":0,
			"byteLength":288,
			"byteOffset":2780172,
			"target":34962
		},
		{
			"buffer":0,
			"byteLength":288,
			"byteOffset":2780460,
			"target":34962
		},
		{
			"buffer":0,
			"byteLength":192,
			"byteOffset":2780748,
			"target":34962
		},
		{
			"buffer":0,
			"byteLength":192,
			"byteOffset":2780940,
			"target":34962
		},
		{
			"buffer":0,
			"byteLength":192,
			"byteOffset":2781132,
			"target":34962
		},
		{
			"buffer":0,
			"byteLength":192,
			"byteOffset":2781324,
			"target":34962
		},
		{
			"buffer":0,
			"byteLength":192,
			"byteOffset":2781516,
			"target":34962
		},
		{
			"buffer":0,
			"byteLength":72,
			"byteOffset":2781708,
			"target":34963
		},
		{
			"buffer":0,
			"byteLength":299184,
			"byteOffset":2781780,
			"target":34962
		},
		{
			"buffer":0,
			"byteLength":299184,
			"byteOffset":3080964,
			"target":34962
		},
		{
			"buffer":0,
			"byteLength":199456,
			"byteOffset":3380148,
			"target":34962
		},
		{
			"buffer":0,
			"byteLength":199456,
			"byteOffset":3579604,
			"target":34962
		},
		{
			"buffer":0,
			"byteLength":199456,
			"byteOffset":3779060,
			"target":34962
		},
		{
			"buffer":0,
			"byteLength":199456,
			"byteOffset":3978516,
			"target":34962
		},
		{
			"buffer":0,
			"byteLength":199456,
			"byteOffset":4177972,
			"target":34962
		},
		{
			"buffer":0,
			"byteLength":199456,
			"byteOffset":4377428,
			"target":34962
		},
		{
			"buffer":0,
			"byteLength":168960,
			"byteOffset":4576884,
			"target":34963
		},
		{
			"buffer":0,
			"byteLength":11088,
			"byteOffset":4745844,
			"target":34962
		},
		{
			"buffer":0,
			"byteLength":11088,
			"byteOffset":4756932,
			"target":34962
		},
		{
			"buffer":0,
			"byteLength":7392,
			"byteOffset":4768020,
			"target":34962
		},
		{
			"buffer":0,
			"byteLength":7392,
			"byteOffset":4775412,
			"target":34962
		},
		{
			"buffer":0,
			"byteLength":7392,
			"byteOffset":4782804,
			"target":34962
		},
		{
			"buffer":0,
			"byteLength":7392,
			"byteOffset":4790196,
			"target":34962
		},
		{
			"buffer":0,
			"byteLength":6720,
			"byteOffset":4797588,
			"target":34963
		},
		{
			"buffer":0,
			"byteLength":10380,
			"byteOffset":4804308,
			"target":34962
		},
		{
			"buffer":0,
			"byteLength":10380,
			"byteOffset":4814688,
			"target":34962
		},
		{
			"buffer":0,
			"byteLength":6920,
			"byteOffset":4825068,
			"target":34962
		},
		{
			"buffer":0,
			"byteLength":6920,
			"byteOffset":4831988,
			"target":34962
		},
		{
			"buffer":0,
			"byteLength":6920,
			"byteOffset":4838908,
			"target":34962
		},
		{
			"buffer":0,
			"byteLength":6920,
			"byteOffset":4845828,
			"target":34962
		},
		{
			"buffer":0,
			"byteLength":10176,
			"byteOffset":4852748,
			"target":34963
		},
		{
			"buffer":0,
			"byteLength":54192,
			"byteOffset":4862924,
			"target":34962
		},
		{
			"buffer":0,
			"byteLength":54192,
			"byteOffset":4917116,
			"target":34962
		},
		{
			"buffer":0,
			"byteLength":36128,
			"byteOffset":4971308,
			"target":34962
		},
		{
			"buffer":0,
			"byteLength":36128,
			"byteOffset":5007436,
			"target":34962
		},
		{
			"buffer":0,
			"byteLength":36128,
			"byteOffset":5043564,
			"target":34962
		},
		{
			"buffer":0,
			"byteLength":36128,
			"byteOffset":5079692,
			"target":34962
		},
		{
			"buffer":0,
			"byteLength":36128,
			"byteOffset":5115820,
			"target":34962
		},
		{
			"buffer":0,
			"byteLength":36128,
			"byteOffset":5151948,
			"target":34962
		},
		{
			"buffer":0,
			"byteLength":9264,
			"byteOffset":5188076,
			"target":34963
		},
		{
			"buffer":0,
			"byteLength":41892,
			"byteOffset":5197340,
			"target":34962
		},
		{
			"buffer":0,
			"byteLength":41892,
			"byteOffset":5239232,
			"target":34962
		},
		{
			"buffer":0,
			"byteLength":27928,
			"byteOffset":5281124,
			"target":34962
		},
		{
			"buffer":0,
			"byteLength":27928,
			"byteOffset":5309052,
			"target":34962
		},
		{
			"buffer":0,
			"byteLength":27928,
			"byteOffset":5336980,
			"target":34962
		},
		{
			"buffer":0,
			"byteLength":27928,
			"byteOffset":5364908,
			"target":34962
		},
		{
			"buffer":0,
			"byteLength":27928,
			"byteOffset":5392836,
			"target":34962
		},
		{
			"buffer":0,
			"byteLength":27928,
			"byteOffset":5420764,
			"target":34962
		},
		{
			"buffer":0,
			"byteLength":28200,
			"byteOffset":5448692,
			"target":34963
		},
		{
			"buffer":0,
			"byteLength":26232,
			"byteOffset":5476892,
			"target":34962
		},
		{
			"buffer":0,
			"byteLength":26232,
			"byteOffset":5503124,
			"target":34962
		},
		{
			"buffer":0,
			"byteLength":17488,
			"byteOffset":5529356,
			"target":34962
		},
		{
			"buffer":0,
			"byteLength":17488,
			"byteOffset":5546844,
			"target":34962
		},
		{
			"buffer":0,
			"byteLength":17488,
			"byteOffset":5564332,
			"target":34962
		},
		{
			"buffer":0,
			"byteLength":17488,
			"byteOffset":5581820,
			"target":34962
		},
		{
			"buffer":0,
			"byteLength":13824,
			"byteOffset":5599308,
			"target":34963
		},
		{
			"buffer":0,
			"byteLength":4656,
			"byteOffset":5613132,
			"target":34962
		},
		{
			"buffer":0,
			"byteLength":4656,
			"byteOffset":5617788,
			"target":34962
		},
		{
			"buffer":0,
			"byteLength":3104,
			"byteOffset":5622444,
			"target":34962
		},
		{
			"buffer":0,
			"byteLength":3104,
			"byteOffset":5625548,
			"target":34962
		},
		{
			"buffer":0,
			"byteLength":3104,
			"byteOffset":5628652,
			"target":34962
		},
		{
			"buffer":0,
			"byteLength":3104,
			"byteOffset":5631756,
			"target":34962
		},
		{
			"buffer":0,
			"byteLength":3104,
			"byteOffset":5634860,
			"target":34962
		},
		{
			"buffer":0,
			"byteLength":3648,
			"byteOffset":5637964,
			"target":34963
		},
		{
			"buffer":0,
			"byteLength":4236,
			"byteOffset":5641612,
			"target":34962
		},
		{
			"buffer":0,
			"byteLength":4236,
			"byteOffset":5645848,
			"target":34962
		},
		{
			"buffer":0,
			"byteLength":2824,
			"byteOffset":5650084,
			"target":34962
		},
		{
			"buffer":0,
			"byteLength":2824,
			"byteOffset":5652908,
			"target":34962
		},
		{
			"buffer":0,
			"byteLength":2824,
			"byteOffset":5655732,
			"target":34962
		},
		{
			"buffer":0,
			"byteLength":2824,
			"byteOffset":5658556,
			"target":34962
		},
		{
			"buffer":0,
			"byteLength":2824,
			"byteOffset":5661380,
			"target":34962
		},
		{
			"buffer":0,
			"byteLength":3264,
			"byteOffset":5664204,
			"target":34963
		},
		{
			"buffer":0,
			"byteLength":26160,
			"byteOffset":5667468,
			"target":34962
		},
		{
			"buffer":0,
			"byteLength":26160,
			"byteOffset":5693628,
			"target":34962
		},
		{
			"buffer":0,
			"byteLength":17440,
			"byteOffset":5719788,
			"target":34962
		},
		{
			"buffer":0,
			"byteLength":17440,
			"byteOffset":5737228,
			"target":34962
		},
		{
			"buffer":0,
			"byteLength":17440,
			"byteOffset":5754668,
			"target":34962
		},
		{
			"buffer":0,
			"byteLength":17440,
			"byteOffset":5772108,
			"target":34962
		},
		{
			"buffer":0,
			"byteLength":13824,
			"byteOffset":5789548,
			"target":34963
		},
		{
			"buffer":0,
			"byteLength":4740,
			"byteOffset":5803372,
			"target":34962
		},
		{
			"buffer":0,
			"byteLength":4740,
			"byteOffset":5808112,
			"target":34962
		},
		{
			"buffer":0,
			"byteLength":3160,
			"byteOffset":5812852,
			"target":34962
		},
		{
			"buffer":0,
			"byteLength":3160,
			"byteOffset":5816012,
			"target":34962
		},
		{
			"buffer":0,
			"byteLength":3160,
			"byteOffset":5819172,
			"target":34962
		},
		{
			"buffer":0,
			"byteLength":3160,
			"byteOffset":5822332,
			"target":34962
		},
		{
			"buffer":0,
			"byteLength":3160,
			"byteOffset":5825492,
			"target":34962
		},
		{
			"buffer":0,
			"byteLength":3648,
			"byteOffset":5828652,
			"target":34963
		},
		{
			"buffer":0,
			"byteLength":4260,
			"byteOffset":5832300,
			"target":34962
		},
		{
			"buffer":0,
			"byteLength":4260,
			"byteOffset":5836560,
			"target":34962
		},
		{
			"buffer":0,
			"byteLength":2840,
			"byteOffset":5840820,
			"target":34962
		},
		{
			"buffer":0,
			"byteLength":2840,
			"byteOffset":5843660,
			"target":34962
		},
		{
			"buffer":0,
			"byteLength":2840,
			"byteOffset":5846500,
			"target":34962
		},
		{
			"buffer":0,
			"byteLength":2840,
			"byteOffset":5849340,
			"target":34962
		},
		{
			"buffer":0,
			"byteLength":2840,
			"byteOffset":5852180,
			"target":34962
		},
		{
			"buffer":0,
			"byteLength":3264,
			"byteOffset":5855020,
			"target":34963
		},
		{
			"buffer":0,
			"byteLength":4752,
			"byteOffset":5858284,
			"target":34962
		},
		{
			"buffer":0,
			"byteLength":4752,
			"byteOffset":5863036,
			"target":34962
		},
		{
			"buffer":0,
			"byteLength":3168,
			"byteOffset":5867788,
			"target":34962
		},
		{
			"buffer":0,
			"byteLength":3168,
			"byteOffset":5870956,
			"target":34962
		},
		{
			"buffer":0,
			"byteLength":3168,
			"byteOffset":5874124,
			"target":34962
		},
		{
			"buffer":0,
			"byteLength":3168,
			"byteOffset":5877292,
			"target":34962
		},
		{
			"buffer":0,
			"byteLength":3168,
			"byteOffset":5880460,
			"target":34962
		},
		{
			"buffer":0,
			"byteLength":4224,
			"byteOffset":5883628,
			"target":34963
		},
		{
			"buffer":0,
			"byteLength":26160,
			"byteOffset":5887852,
			"target":34962
		},
		{
			"buffer":0,
			"byteLength":26160,
			"byteOffset":5914012,
			"target":34962
		},
		{
			"buffer":0,
			"byteLength":17440,
			"byteOffset":5940172,
			"target":34962
		},
		{
			"buffer":0,
			"byteLength":17440,
			"byteOffset":5957612,
			"target":34962
		},
		{
			"buffer":0,
			"byteLength":17440,
			"byteOffset":5975052,
			"target":34962
		},
		{
			"buffer":0,
			"byteLength":17440,
			"byteOffset":5992492,
			"target":34962
		},
		{
			"buffer":0,
			"byteLength":4740,
			"byteOffset":6009932,
			"target":34962
		},
		{
			"buffer":0,
			"byteLength":4740,
			"byteOffset":6014672,
			"target":34962
		},
		{
			"buffer":0,
			"byteLength":3160,
			"byteOffset":6019412,
			"target":34962
		},
		{
			"buffer":0,
			"byteLength":3160,
			"byteOffset":6022572,
			"target":34962
		},
		{
			"buffer":0,
			"byteLength":3160,
			"byteOffset":6025732,
			"target":34962
		},
		{
			"buffer":0,
			"byteLength":3160,
			"byteOffset":6028892,
			"target":34962
		},
		{
			"buffer":0,
			"byteLength":3160,
			"byteOffset":6032052,
			"target":34962
		},
		{
			"buffer":0,
			"byteLength":4260,
			"byteOffset":6035212,
			"target":34962
		},
		{
			"buffer":0,
			"byteLength":4260,
			"byteOffset":6039472,
			"target":34962
		},
		{
			"buffer":0,
			"byteLength":2840,
			"byteOffset":6043732,
			"target":34962
		},
		{
			"buffer":0,
			"byteLength":2840,
			"byteOffset":6046572,
			"target":34962
		},
		{
			"buffer":0,
			"byteLength":2840,
			"byteOffset":6049412,
			"target":34962
		},
		{
			"buffer":0,
			"byteLength":2840,
			"byteOffset":6052252,
			"target":34962
		},
		{
			"buffer":0,
			"byteLength":2840,
			"byteOffset":6055092,
			"target":34962
		},
		{
			"buffer":0,
			"byteLength":4752,
			"byteOffset":6057932,
			"target":34962
		},
		{
			"buffer":0,
			"byteLength":4752,
			"byteOffset":6062684,
			"target":34962
		},
		{
			"buffer":0,
			"byteLength":3168,
			"byteOffset":6067436,
			"target":34962
		},
		{
			"buffer":0,
			"byteLength":3168,
			"byteOffset":6070604,
			"target":34962
		},
		{
			"buffer":0,
			"byteLength":3168,
			"byteOffset":6073772,
			"target":34962
		},
		{
			"buffer":0,
			"byteLength":3168,
			"byteOffset":6076940,
			"target":34962
		},
		{
			"buffer":0,
			"byteLength":3168,
			"byteOffset":6080108,
			"target":34962
		},
		{
			"buffer":0,
			"byteLength":31260,
			"byteOffset":6083276,
			"target":34962
		},
		{
			"buffer":0,
			"byteLength":31260,
			"byteOffset":6114536,
			"target":34962
		},
		{
			"buffer":0,
			"byteLength":20840,
			"byteOffset":6145796,
			"target":34962
		},
		{
			"buffer":0,
			"byteLength":29172,
			"byteOffset":6166636,
			"target":34963
		},
		{
			"buffer":0,
			"byteLength":7092,
			"byteOffset":6195808,
			"target":34962
		},
		{
			"buffer":0,
			"byteLength":7092,
			"byteOffset":6202900,
			"target":34962
		},
		{
			"buffer":0,
			"byteLength":4728,
			"byteOffset":6209992,
			"target":34962
		},
		{
			"buffer":0,
			"byteLength":6120,
			"byteOffset":6214720,
			"target":34963
		},
		{
			"buffer":0,
			"byteLength":576,
			"byteOffset":6220840,
			"target":34962
		},
		{
			"buffer":0,
			"byteLength":576,
			"byteOffset":6221416,
			"target":34962
		},
		{
			"buffer":0,
			"byteLength":384,
			"byteOffset":6221992,
			"target":34962
		},
		{
			"buffer":0,
			"byteLength":420,
			"byteOffset":6222376,
			"target":34963
		},
		{
			"buffer":0,
			"byteLength":192,
			"byteOffset":6222796,
			"target":34962
		},
		{
			"buffer":0,
			"byteLength":192,
			"byteOffset":6222988,
			"target":34962
		},
		{
			"buffer":0,
			"byteLength":128,
			"byteOffset":6223180,
			"target":34962
		},
		{
			"buffer":0,
			"byteLength":84,
			"byteOffset":6223308,
			"target":34963
		}
	],
	"samplers":[
		{
			"magFilter":9729,
			"minFilter":9987
		}
	],
	"buffers":[
		{
			"byteLength":6223392,
			"uri":"iphone17CleanSceneTest.bin"
		}
	]
}
